<?xml version="1.0" encoding="utf-8"?>
<!-- Generator: Adobe Illustrator 26.5.3, SVG Export Plug-In . SVG Version: 6.00 Build 0)  -->
<svg version="1.1" id="圖層_1" xmlns="http://www.w3.org/2000/svg" xmlns:xlink="http://www.w3.org/1999/xlink" x="0px" y="0px"
	 width="330px" height="34px" viewBox="0 0 330 34" style="enable-background:new 0 0 330 34;" xml:space="preserve">
<style type="text/css">
	.st0{fill:#00A63C;}
	.st1{fill:#FFFFFF;}
	.st2{fill:#E95504;}
</style>
<g>
	<g>
		<g>
			<polygon class="st0" points="63.7,8.8 63.7,12.9 54.7,12.9 54.7,15 63.7,15 63.7,18.6 54.7,18.6 54.7,21.1 63.7,21.1 63.7,25.1 
				49.5,25.2 49.5,8.8 			"/>
			<polygon class="st0" points="96.5,8.8 96.5,12.9 87.5,12.9 87.5,15 96.5,15 96.5,18.6 87.5,18.6 87.5,21.1 96.5,21.1 96.5,25.1 
				82.3,25.2 82.3,8.8 			"/>
			<polygon class="st0" points="161.8,8.8 161.8,12.9 152.8,12.9 152.8,15 161.8,15 161.8,18.6 152.8,18.6 152.8,21.1 161.8,21.1 
				161.8,25.1 147.6,25.2 147.6,8.8 			"/>
			<polygon class="st0" points="177.6,8.8 177.6,12.9 168.6,12.9 168.6,15 177.6,15 177.6,18.6 168.6,18.6 168.6,21.1 177.6,21.1 
				177.6,25.1 163.4,25.2 163.4,8.8 			"/>
			<g>
				<polygon class="st0" points="81.3,8.8 75.7,8.8 73,19.6 70.2,8.8 64.6,8.8 70,25.1 75.9,25.1 				"/>
			</g>
			<path class="st0" d="M111.5,17.5c0.8-0.1,1.3-0.8,1.3-1.6v-0.3v-0.5v-4.1h0c0,0,0,0,0-0.1c0-1.1-0.9-2-2-2h-0.4H110H98.1v16.3
				h5.2l0,0v-5.7h2.6v0c0.9,0,1.6,0.7,1.6,1.6c0,0,0,0,0,0.1h0v4v0h2.8l0,0h2.4v-1.6c0,0,0,0,0,0v-4.4
				C112.8,18.3,112.2,17.6,111.5,17.5z M103.3,12.9h0.8c0,0,0,0,0,0h2.6c0.4,0,0.8,0.4,0.8,0.8V15c0,0.4-0.3,0.8-0.8,0.8h-2.6
				c0,0,0,0,0,0h-0.8V12.9z"/>
			<path class="st0" d="M144.6,17.5c0.8-0.1,1.3-0.8,1.3-1.6v-0.3v-0.5v-4.1h0c0,0,0,0,0-0.1c0-1.1-0.9-2-2-2h-0.4h-0.4h-11.9v16.3
				h5.2l0,0v-5.7h2.6v0c0.9,0,1.6,0.7,1.6,1.6c0,0,0,0,0,0.1h0v4v0h2.8l0,0h2.4v-1.6c0,0,0,0,0,0v-4.4
				C145.9,18.3,145.4,17.6,144.6,17.5z M136.5,12.9h0.8c0,0,0,0,0,0h2.6c0.4,0,0.8,0.4,0.8,0.8V15c0,0.4-0.3,0.8-0.8,0.8h-2.6
				c0,0,0,0,0,0h-0.8L136.5,12.9L136.5,12.9z"/>
			<g>
				<path class="st0" d="M129.6,14.1v-2.8c0-1.3-1.1-2.4-2.4-2.4h-10.3c-1.3,0-2.4,1.1-2.4,2.4v11.4c0,1.3,1.1,2.4,2.4,2.4h10.3
					c1.3,0,2.4-1.1,2.4-2.4v-7h-5.2v0h-2.8v3.4h2.8v1.1c0,0.4-0.4,0.8-0.8,0.8h-3.1c-0.4,0-0.8-0.4-0.8-0.8v-6.5
					c0-0.4,0.4-0.8,0.8-0.8h3.1c0.4,0,0.8,0.4,0.8,0.8v0.3H129.6z"/>
			</g>
			<g>
				<polygon class="st0" points="194.6,8.8 189.4,8.8 189.4,17.8 184.5,8.8 179.3,8.8 179.3,25.1 184.5,25.1 184.5,16.2 189.4,25.1 
					194.6,25.1 				"/>
			</g>
		</g>
		<g>
			<path class="st0" d="M251.6,14v-2.8c0-1.3-1.1-2.4-2.4-2.4h-10.3c-1.3,0-2.4,1.1-2.4,2.4v11.4c0,1.3,1.1,2.4,2.4,2.4h10.3
				c1.3,0,2.4-1.1,2.4-2.4v-7l-8,0v3.4h2.8v1.1c0,0.4-0.4,0.8-0.8,0.8h-3.1c-0.4,0-0.8-0.4-0.8-0.8v-6.5c0-0.4,0.4-0.8,0.8-0.8h3.1
				c0.4,0,0.8,0.4,0.8,0.8V14H251.6z"/>
		</g>
		<rect x="291.8" y="8.8" class="st0" width="5.2" height="16.3"/>
		<rect x="253.5" y="8.8" class="st0" width="5.2" height="16.3"/>
		<g>
			<path class="st0" d="M232.4,8.8h-10.3c-1.4,0-2.4,1.1-2.4,2.4v11.4c0,1.4,1.1,2.4,2.4,2.4h10.3c1.4,0,2.4-1.1,2.4-2.4V11.3
				C234.9,9.9,233.8,8.8,232.4,8.8z M229.6,20.2c0,0.5-0.4,0.8-0.8,0.8h-3.1c-0.5,0-0.8-0.4-0.8-0.8v-6.5c0-0.4,0.4-0.8,0.8-0.8h3.1
				c0.5,0,0.8,0.4,0.8,0.8V20.2z"/>
		</g>
		<path class="st0" d="M308.9,20.2c0,0.4-0.4,0.8-0.8,0.8H305c-0.5,0-0.8-0.4-0.8-0.8v-6.5c0-0.4,0.4-0.8,0.8-0.8h3.1
			c0.4,0,0.8,0.4,0.8,0.8v1.5h5.2v-3.9c0-1.3-1.1-2.4-2.4-2.4h-10.3c-1.3,0-2.4,1.1-2.4,2.4v11.4c0,1.3,1.1,2.4,2.4,2.4h10.3
			c1.3,0,2.4-1.1,2.4-2.4v-4.4h-5.2V20.2z"/>
		<g>
			<polygon class="st0" points="290.5,12.9 290.5,8.8 275.9,8.8 275.9,12.9 280.6,12.9 280.6,25.1 285.8,25.1 285.8,12.9 			"/>
		</g>
		<g>
			<polygon class="st0" points="210.6,8.8 205.4,8.8 205.4,25.1 218.4,25.1 218.4,21.1 210.6,21.1 			"/>
		</g>
		<path class="st0" d="M272.6,14.9L272.6,14.9l-0.4,0l-2.2,0l-3.4-0.1c-0.5,0-0.8-0.4-0.8-0.8v-0.2c0-0.4,0.4-0.8,0.8-0.8h2
			c0.1,0,0.2,0,0.3,0c0.3,0.1,0.5,0.4,0.5,0.8v0.2v0l5.2,0v-2.7c0-1.3-1.1-2.4-2.4-2.4v0h-9.1v0c-1.3,0-2.4,1-2.4,2.3h0v4.6
			c0,1.3,1.1,2.4,2.4,2.4v0h0.1l5.7,0.2l0,0v0c0.4,0,0.8,0.4,0.8,0.8v0.2v0.8c0,0.4-0.3,0.8-0.8,0.8c0,0,0,0-0.1,0h-2.5
			c-0.5,0-0.8-0.4-0.8-0.8v-0.8h-5.2v3.2c0,1.3,1.1,2.4,2.4,2.4l0,0h0h9.7h0l0,0c1.3,0,2.4-1.1,2.4-2.4l0,0v-0.1v-5.4
			C275,16,273.9,14.9,272.6,14.9z"/>
		<path class="st0" d="M327.6,14.9L327.6,14.9l-0.4,0l-2.2-0.1l-3.4-0.1c-0.4,0-0.8-0.4-0.8-0.8v-0.2c0-0.5,0.4-0.8,0.8-0.8h2
			c0.1,0,0.2,0,0.3,0c0.3,0.1,0.5,0.4,0.5,0.8v0.2v0l5.2,0v-2.6c0-1.3-1.1-2.4-2.4-2.4v0h-9.1v0c-1.3,0-2.4,1-2.4,2.3l0,0v4.6
			c0,1.3,1.1,2.4,2.4,2.4v0h0.1l5.7,0.2l0,0v0.1c0.4,0,0.8,0.4,0.8,0.8v0.2v0.8c0,0.4-0.3,0.8-0.8,0.8c0,0,0,0-0.1,0h-2.5
			c-0.4,0-0.8-0.4-0.8-0.8v-0.8h-5.2v3.2c0,1.3,1.1,2.4,2.4,2.4l0,0h0h9.6l0,0l0,0c1.3,0,2.4-1.1,2.4-2.4h0v-0.1v-5.4
			C330,16,328.9,14.9,327.6,14.9z"/>
	</g>
	<g>
		<g>
			<path class="st1" d="M10.3,1.4c-1,0.4-2,0.9-2.9,1.6C6.6,3.6,5.7,4.3,5,5C4.2,5.8,3.5,6.6,2.9,7.5c-0.6,0.9-1.1,1.9-1.6,2.9
				C0.4,12.5,0,14.7,0,17s0.4,4.5,1.3,6.6c0.4,1,0.9,2,1.6,2.9C3.5,27.4,4.2,28.2,5,29c0.8,0.8,1.6,1.5,2.5,2.1
				c0.9,0.6,1.9,1.1,2.9,1.6c2.1,0.9,4.3,1.3,6.6,1.3s4.5-0.4,6.6-1.3c1-0.4,2-0.9,2.9-1.6c0.9-0.6,1.7-1.3,2.5-2.1
				c0.8-0.8,1.5-1.6,2.1-2.5c0.6-0.9,1.1-1.9,1.6-2.9c0.9-2.1,1.3-4.3,1.3-6.6s-0.4-4.5-1.3-6.6l0,0c-0.4-1-0.9-2-1.6-2.9
				c-0.6-0.9-1.3-1.7-2.1-2.5c-0.8-0.8-1.6-1.5-2.5-2.1c-0.9-0.6-1.9-1.1-2.9-1.6c-2.1-0.9-4.3-1.3-6.6-1.3
				C14.6,0.1,12.4,0.5,10.3,1.4z"/>
		</g>
		<g>
			<path class="st2" d="M11.6,22.1c0.1-0.2,0.2-0.5,0.4-0.8c-0.2-1-0.3-2-0.3-3.1c-0.1,0-0.2-0.1-0.3-0.1c0.1,1.2,0.2,2.4,0.4,3.6
				c-0.7,0.1-1.5,0.3-2.2,0.5c-0.5,0.1-1,0.3-1.5,0.4L8.2,23c0.5-0.1,0.9-0.3,1.4-0.4C10.3,22.4,10.9,22.2,11.6,22.1z"/>
			<path class="st2" d="M22.1,21.7c0.2-1.2,0.4-2.4,0.4-3.6c-0.1,0-0.2,0.1-0.3,0.1c0,1-0.2,2.1-0.3,3.1c0.1,0.3,0.3,0.6,0.4,0.8
				c0.7,0.1,1.3,0.3,2,0.4c0.5,0.1,0.9,0.3,1.4,0.4l0.2-0.3c-0.5-0.2-1-0.3-1.5-0.4C23.6,22,22.9,21.9,22.1,21.7z"/>
			<path class="st2" d="M16.4,26.7c0-0.1,0-0.2-0.1-0.3c-0.7,0-1.3,0.1-1.9,0.3c-0.3,0.1-0.6,0.2-0.8,0.3c-0.2-0.4-0.4-0.9-0.5-1.3
				c-0.4-1.1-0.7-2.3-1-3.4c-0.1,0.1-0.2,0.1-0.3,0.1c0.2,1.2,0.6,2.3,0.9,3.4c0.1,0.4,0.3,0.8,0.4,1.2l0.8,0.2
				c0.1,0,0.3-0.1,0.4-0.1C15.1,26.9,15.8,26.8,16.4,26.7z"/>
			<path class="st2" d="M20.1,21.4C20.1,21.4,20,21.4,20.1,21.4c-0.6-0.1-1.1-0.1-1.6-0.1c0,0.1,0,0.2-0.1,0.3
				c0.9,0,1.8,0.1,2.7,0.3C20.7,21.8,20.4,21.6,20.1,21.4z"/>
			<path class="st2" d="M20.1,21.4C20.1,21.4,20,21.4,20.1,21.4c-0.6-0.1-1.1-0.1-1.6-0.1c0,0.1,0,0.2-0.1,0.3
				c0.9,0,1.8,0.1,2.7,0.3C20.7,21.8,20.4,21.6,20.1,21.4z"/>
			<path class="st2" d="M21.1,12.1c-0.9,0.1-1.8,0.2-2.7,0.3c0,0.1,0,0.2,0.1,0.3c0.6,0,1.1-0.1,1.7-0.1
				C20.4,12.4,20.7,12.3,21.1,12.1z"/>
			<path class="st2" d="M22,22.3c-0.1,0-0.2-0.1-0.3-0.1c-0.2,1.2-0.6,2.3-1,3.4c-0.2,0.5-0.3,0.9-0.5,1.3c-0.3-0.1-0.5-0.2-0.8-0.3
				c-0.6-0.2-1.3-0.3-1.9-0.3c0,0.1,0,0.2-0.1,0.3c0.6,0,1.3,0.1,1.9,0.3c0.1,0,0.3,0.1,0.4,0.1l0.8-0.2c0.2-0.4,0.3-0.8,0.4-1.2
				C21.5,24.6,21.8,23.5,22,22.3z"/>
			<path class="st2" d="M31.9,10.7c-0.4-1-0.9-1.9-1.5-2.8c-0.6-0.9-1.3-1.7-2-2.4s-1.5-1.4-2.4-2c-0.9-0.6-1.8-1.1-2.8-1.5
				c-2-0.9-4.1-1.3-6.3-1.3c-2.2,0-4.3,0.4-6.3,1.3c-1,0.4-1.9,0.9-2.8,1.5C7,4.1,6.1,4.7,5.4,5.5S4,7,3.4,7.9
				c-0.6,0.9-1.1,1.8-1.5,2.8c-0.8,2-1.3,4.1-1.3,6.3c0,2.2,0.4,4.3,1.3,6.3c0.4,1,0.9,1.9,1.5,2.8c0.6,0.9,1.3,1.7,2,2.4
				s1.5,1.4,2.4,2c0.9,0.6,1.8,1.1,2.8,1.5c2,0.8,4.1,1.3,6.3,1.3c2.2,0,4.3-0.4,6.3-1.3c1-0.4,1.9-0.9,2.8-1.5
				c0.9-0.6,1.7-1.3,2.4-2s1.4-1.5,2-2.4c0.6-0.9,1.1-1.8,1.5-2.8c0.8-2,1.3-4.1,1.3-6.3C33.2,14.8,32.8,12.7,31.9,10.7z M31.6,10.8
				c0.8,1.9,1.2,4,1.3,6.1h-5.2c0-2-0.4-3.9-1-5.8c1.4-0.5,2.8-1.1,4.2-1.9C31.1,9.7,31.4,10.2,31.6,10.8z M25.9,3.8
				c0.8,0.6,1.6,1.2,2.4,2c0.7,0.7,1.4,1.5,2,2.4c0.2,0.3,0.4,0.5,0.5,0.8c-1.3,0.7-2.7,1.4-4.1,1.9c-0.5-1.3-1.2-2.5-2-3.7
				c-0.4-0.6-0.9-1.2-1.4-1.7c0.7-0.6,1.3-1.3,1.8-2C25.3,3.4,25.6,3.6,25.9,3.8z M23.1,2.3c0.6,0.2,1.1,0.5,1.6,0.8
				c-0.5,0.7-1.1,1.4-1.8,2c-0.6-0.6-1.2-1.2-1.9-1.8c-1.1-0.9-2.4-1.7-3.7-2.3C19.4,1.1,21.3,1.5,23.1,2.3z M22.7,5.3
				c-0.4,0.3-0.8,0.6-1.2,0.8c-0.4,0.2-0.7,0.4-1.1,0.5c-0.8-1.8-1.8-3.6-3-5.2c1.2,0.6,2.4,1.3,3.5,2.1C21.6,4.1,22.2,4.7,22.7,5.3
				z M10.7,2.3c1.8-0.8,3.8-1.2,5.8-1.2c-1.3,0.6-2.6,1.4-3.7,2.3c-0.7,0.5-1.3,1.1-1.9,1.8c-0.7-0.6-1.3-1.2-1.8-2
				C9.6,2.8,10.2,2.5,10.7,2.3z M16.4,1.4c-1.2,1.6-2.2,3.4-3,5.2c-0.4-0.2-0.7-0.3-1.1-0.5c-0.4-0.2-0.8-0.5-1.2-0.8
				c0.6-0.6,1.2-1.2,1.9-1.7C14,2.7,15.2,2,16.4,1.4z M3.7,8.1c0.6-0.8,1.2-1.6,2-2.4C6.4,5,7.2,4.3,8,3.8c0.3-0.2,0.5-0.3,0.8-0.5
				c0.5,0.8,1.1,1.5,1.8,2c-0.5,0.5-1,1.1-1.4,1.7c-0.8,1.2-1.5,2.4-2,3.7c-1.4-0.5-2.8-1.1-4.1-1.9C3.3,8.6,3.5,8.3,3.7,8.1z
				 M2.2,10.8C2.4,10.2,2.7,9.7,3,9.2c1.3,0.7,2.7,1.4,4.2,1.9c-0.7,1.8-1,3.8-1,5.8H1C1,14.7,1.4,12.7,2.2,10.8z M31.6,23.2
				c-0.2,0.6-0.5,1.1-0.8,1.6c-0.3-0.2-0.7-0.4-1.1-0.6l-0.1,0.3c0.3,0.2,0.7,0.4,1,0.5c-0.2,0.3-0.3,0.5-0.5,0.8
				c-0.6,0.8-1.2,1.6-2,2.4c-0.7,0.7-1.5,1.4-2.4,2c-0.3,0.2-0.5,0.4-0.8,0.5c-0.2-0.3-0.4-0.5-0.6-0.8l-0.3,0.2
				c0.2,0.2,0.4,0.5,0.6,0.7c-0.5,0.3-1.1,0.6-1.6,0.8c-1.8,0.8-3.8,1.2-5.8,1.2c0.8-0.4,1.5-0.8,2.3-1.2l-0.1-0.3
				c-0.7,0.4-1.4,0.8-2.1,1.2c0.2-0.3,0.4-0.6,0.6-0.9l-0.4,0c-0.2,0.3-0.4,0.5-0.6,0.8v-0.8l-0.1,0l-0.2,0v0.8
				c-0.2-0.3-0.4-0.5-0.6-0.8l-0.4,0c0.2,0.3,0.4,0.6,0.6,0.9c-0.7-0.3-1.4-0.7-2.1-1.1l-0.1,0.3c0.7,0.5,1.5,0.9,2.2,1.2
				c-2-0.1-3.9-0.5-5.8-1.2c-0.6-0.2-1.1-0.5-1.6-0.8c0.2-0.3,0.4-0.5,0.6-0.8L9.4,30c-0.2,0.2-0.4,0.5-0.6,0.8
				c-0.3-0.2-0.5-0.3-0.8-0.5c-0.8-0.6-1.6-1.2-2.4-2c-0.7-0.7-1.4-1.5-2-2.4c-0.2-0.3-0.3-0.5-0.5-0.8c0.3-0.2,0.7-0.4,1.1-0.6
				l-0.1-0.3c-0.4,0.2-0.7,0.4-1.1,0.6c-0.3-0.5-0.6-1.1-0.8-1.7c-0.8-1.9-1.2-4-1.3-6h5.2c0,0.3,0,0.5,0,0.8h0.3c0-0.3,0-0.5,0-0.8
				h1.6v-0.3H6.5c0-2,0.4-3.9,1-5.7c0.7,0.2,1.3,0.4,2,0.6c0.7,0.2,1.5,0.4,2.2,0.5c-0.2,1.2-0.4,2.4-0.4,3.6c0.1,0,0.2-0.1,0.3-0.1
				c0-1,0.2-2.1,0.3-3.1c-0.1-0.3-0.3-0.6-0.4-0.8c-0.7-0.1-1.3-0.3-2-0.4c-0.7-0.2-1.3-0.4-2-0.6c0.5-1.3,1.1-2.5,1.9-3.6
				c0.4-0.6,0.9-1.2,1.4-1.7c0.4,0.3,0.8,0.6,1.3,0.9c0.4,0.2,0.7,0.4,1.1,0.5c-0.2,0.4-0.4,0.9-0.5,1.3c-0.4,1.1-0.7,2.3-0.9,3.4
				c0.1,0,0.2,0.1,0.3,0.1c0.2-1.2,0.6-2.3,1-3.4c0.2-0.4,0.3-0.9,0.5-1.3c0.3,0.1,0.5,0.2,0.8,0.3c0.6,0.2,1.3,0.3,1.9,0.3
				c0-0.1,0-0.2,0.1-0.3c-0.6,0-1.3-0.1-1.9-0.3c-0.3-0.1-0.5-0.2-0.8-0.2c0.8-1.9,1.8-3.6,3-5.2v4.6h0.3V1.5c1.2,1.6,2.2,3.4,3,5.2
				c-0.3,0.1-0.5,0.2-0.8,0.2c-0.6,0.2-1.3,0.3-1.9,0.3c0,0.1,0,0.2,0.1,0.3c0.7,0,1.3-0.1,1.9-0.3C19.7,7.2,20,7.1,20.2,7
				c0.2,0.4,0.4,0.9,0.5,1.3c0.4,1.1,0.7,2.3,1,3.4c0.1-0.1,0.2-0.1,0.3-0.1c-0.2-1.2-0.6-2.3-1-3.4c-0.2-0.5-0.3-0.9-0.5-1.3
				c0.4-0.2,0.8-0.3,1.1-0.5c0.5-0.3,0.9-0.5,1.3-0.9c0.5,0.5,1,1.1,1.4,1.7c0.8,1.1,1.4,2.4,1.9,3.6c-0.7,0.2-1.4,0.4-2,0.6
				c-0.6,0.2-1.3,0.3-2,0.4c-0.1,0.2-0.2,0.5-0.4,0.8c0.2,1,0.3,2.1,0.3,3.1c0.1,0,0.2,0.1,0.3,0.1c0-1.2-0.2-2.4-0.4-3.6
				c0.7-0.1,1.5-0.3,2.2-0.5c0.7-0.2,1.4-0.4,2.1-0.6c0.7,1.8,1,3.7,1,5.7h-1.6v0.3h1.6c0,0.3,0,0.5,0,0.8h0.3c0-0.3,0-0.5,0-0.8
				h5.2C32.9,19.3,32.4,21.3,31.6,23.2z"/>
			<path class="st2" d="M13.8,12.6c0.6,0.1,1.1,0.1,1.7,0.1c0-0.1,0-0.2,0.1-0.3c-0.9,0-1.8-0.1-2.7-0.3
				C13.1,12.3,13.4,12.4,13.8,12.6z"/>
			<path class="st2" d="M12.8,21.9c0.9-0.1,1.8-0.2,2.7-0.3c0-0.1,0-0.2-0.1-0.3c-0.6,0-1.1,0.1-1.7,0.1
				C13.4,21.6,13.1,21.8,12.8,21.9z"/>
		</g>
		<polygon class="st0" points="25.4,17 20.1,15.7 21.7,12.2 18.3,13.8 16.9,6.5 15.6,13.8 12.1,12.2 13.7,15.7 8.4,17 8.4,17 
			13.7,18.3 12.1,21.8 15.6,20.2 16.9,27.6 18.3,20.2 21.7,21.8 20.1,18.3 25.4,17 		"/>
		<g>
			<path class="st0" d="M18.5,29v-0.6c0-0.3-0.2-0.5-0.5-0.5h-2.2c-0.3,0-0.5,0.2-0.5,0.5v2.4c0,0.3,0.2,0.5,0.5,0.5H18
				c0.3,0,0.5-0.2,0.5-0.5v-1.5h-1.1v0h-0.6v0.7h0.6v0.2c0,0,0,0.1,0,0.1c0,0-0.1,0.1-0.1,0.1h-0.7c-0.1,0-0.2-0.1-0.2-0.2v-1.4
				c0-0.1,0.1-0.2,0.2-0.2h0.7c0.1,0,0.2,0.1,0.2,0.2V29L18.5,29L18.5,29z"/>
		</g>
		<polygon class="st0" points="8.9,24.7 8.2,23.7 6,24.4 7.6,22.7 7,21.7 4.7,24.5 5.3,25.5 		"/>
		<path class="st0" d="M14.2,29.6c0.2,0,0.3-0.1,0.4-0.3l0-0.1l0-0.1l0.2-0.8l0,0c0,0,0,0,0,0c0.1-0.2-0.1-0.5-0.3-0.5l-0.1,0
			l-0.1,0l-2.4-0.6L11,30.4l1.1,0.3l0,0l0.3-1.2l0.5,0.1l0,0c0.2,0,0.3,0.2,0.2,0.4c0,0,0,0,0,0l0,0L13,30.9v0l0.6,0.2l0,0l0.5,0.1
			l0.1-0.3c0,0,0,0,0,0l0.2-0.9C14.4,29.8,14.3,29.6,14.2,29.6z M12.8,28.2l0.2,0c0,0,0,0,0,0l0.5,0.1c0.1,0,0.1,0.1,0.1,0.2
			l-0.1,0.3c0,0.1-0.1,0.1-0.2,0.1l-0.5-0.1c0,0,0,0,0,0l-0.2,0L12.8,28.2z"/>
		<polygon class="st0" points="10,28.8 8.4,27.7 8.8,27.3 10.3,28.4 10.7,27.8 9.2,26.7 9.5,26.3 11,27.5 11.5,26.8 9.1,25 7,27.7 
			9.4,29.5 		"/>
		<polygon class="st0" points="4.4,21.8 4.1,19.9 4.6,19.8 4.9,21.7 5.7,21.5 5.4,19.7 5.8,19.6 6.1,21.5 7,21.3 6.4,18.4 3.1,19 
			3.6,21.9 		"/>
		<g>
			<g>
				<polygon class="st0" points="27.4,18.4 27.2,19.4 29,19.8 27,20.5 26.8,21.5 30.2,22.2 30.4,21.1 28.5,20.7 30.6,20.1 30.8,19 
									"/>
			</g>
			<path class="st0" d="M22.2,28.9c0.1-0.1,0.2-0.2,0.2-0.4l0-0.1l0-0.1l-0.2-0.8l0,0c0,0,0,0,0,0c-0.1-0.2-0.3-0.4-0.5-0.3l-0.1,0
				l-0.1,0L19,27.9l0.9,3.3l1.1-0.3v0l-0.3-1.2l0.5-0.1l0,0c0.2,0,0.4,0.1,0.4,0.2c0,0,0,0,0,0l0,0l0.2,0.8v0l0.6-0.2l0,0l0.5-0.1
				l-0.1-0.3c0,0,0,0,0,0l-0.2-0.9C22.5,29,22.4,28.9,22.2,28.9z M20.3,28.4l0.2,0c0,0,0,0,0,0l0.5-0.1c0.1,0,0.2,0,0.2,0.1l0.1,0.3
				c0,0.1,0,0.2-0.1,0.2L20.6,29c0,0,0,0,0,0l-0.2,0L20.3,28.4z"/>
			<polygon class="st0" points="26.3,27 24.8,28.2 24.5,27.8 26,26.6 25.5,26 24,27.2 23.7,26.8 25.3,25.7 24.7,25 22.3,26.8 
				24.4,29.5 26.8,27.7 			"/>
			<polygon class="st0" points="28.9,23.4 27.9,25 27.5,24.7 28.4,23.1 27.8,22.7 26.8,24.3 26.4,24.1 27.4,22.5 26.7,22 25.1,24.6 
				28.1,26.4 29.6,23.8 			"/>
		</g>
	</g>
</g>
</svg>
